<svg xmlns="http://www.w3.org/2000/svg" width="1120" height="520" viewBox="0 0 1120 520" role="img" aria-labelledby="title desc">
  <title id="title">DevPlane single-cluster flow</title>
  <desc id="desc">DevPlane CLI bootstraps one local kind cluster, installs ArgoCD, applies ApplicationSets, and reconciles packaged charts for platform, agents, and observability.</desc>
  <defs>
    <linearGradient id="bg" x1="0" y1="0" x2="1" y2="1">
      <stop offset="0" stop-color="#f8fafc"/>
      <stop offset="1" stop-color="#e6f4f1"/>
    </linearGradient>
    <marker id="arrow" viewBox="0 0 10 10" refX="9" refY="5" markerWidth="8" markerHeight="8" orient="auto-start-reverse">
      <path d="M 0 0 L 10 5 L 0 10 z" fill="#25636a"/>
    </marker>
    <style>
      .title { font: 700 26px Arial, sans-serif; fill: #132f33; }
      .label { font: 700 16px Arial, sans-serif; fill: #16353a; }
      .small { font: 13px Arial, sans-serif; fill: #36565b; }
      .box { fill: #ffffff; stroke: #8bb8b2; stroke-width: 2; rx: 10; }
      .core { fill: #e7f5ef; stroke: #54a383; }
      .obs { fill: #eef2ff; stroke: #7b8ce6; }
      .agent { fill: #fff7e6; stroke: #d49b39; }
      .line { stroke: #25636a; stroke-width: 2.5; fill: none; marker-end: url(#arrow); }
    </style>
  </defs>
  <rect width="1120" height="520" fill="url(#bg)"/>
  <text x="48" y="54" class="title">DevPlane single-cluster platform flow</text>
  <text x="48" y="82" class="small">One repo ships the CLI, Codex skill, kind config, ArgoCD ApplicationSets, and Helm charts.</text>

  <rect x="54" y="164" width="190" height="100" class="box"/>
  <text x="84" y="202" class="label">devplane CLI</text>
  <text x="84" y="228" class="small">install-prereqs</text>
  <text x="84" y="248" class="small">up / hosts / status</text>

  <rect x="310" y="130" width="230" height="168" class="box core"/>
  <text x="344" y="168" class="label">kind devplane</text>
  <text x="344" y="194" class="small">single local cluster</text>
  <text x="344" y="214" class="small">ingress-nginx</text>
  <text x="344" y="234" class="small">ArgoCD bootstrap</text>
  <text x="344" y="254" class="small">argo.localhost</text>

  <rect x="608" y="130" width="230" height="168" class="box core"/>
  <text x="642" y="168" class="label">ApplicationSets</text>
  <text x="642" y="194" class="small">platform-addons</text>
  <text x="642" y="214" class="small">agent-addons</text>
  <text x="642" y="234" class="small">observability-addons</text>
  <text x="642" y="254" class="small">in-cluster target</text>

  <rect x="900" y="58" width="190" height="112" class="box core"/>
  <text x="936" y="96" class="label">platform</text>
  <text x="936" y="122" class="small">Vault</text>
  <text x="936" y="142" class="small">External Secrets</text>
  <text x="936" y="162" class="small">Kyverno</text>

  <rect x="900" y="204" width="190" height="112" class="box agent"/>
  <text x="938" y="242" class="label">agents</text>
  <text x="938" y="268" class="small">OpenTelemetry</text>
  <text x="938" y="288" class="small">Vector</text>

  <rect x="900" y="350" width="190" height="112" class="box obs"/>
  <text x="924" y="388" class="label">observability</text>
  <text x="924" y="414" class="small">Grafana, Loki</text>
  <text x="924" y="434" class="small">Tempo, Mimir</text>
  <text x="924" y="454" class="small">MinIO storage</text>

  <rect x="310" y="352" width="528" height="80" class="box"/>
  <text x="344" y="386" class="label">apps live in devplane-apps</text>
  <text x="344" y="412" class="small">sample services and application chart are versioned separately</text>

  <path class="line" d="M 244 214 L 310 214"/>
  <path class="line" d="M 540 214 L 608 214"/>
  <path class="line" d="M 838 174 L 900 114"/>
  <path class="line" d="M 838 214 L 900 260"/>
  <path class="line" d="M 838 254 L 900 406"/>
  <path class="line" d="M 608 390 L 540 390"/>

  <text x="548" y="332" class="small">OTel -> Vector -> Loki / Tempo / Mimir</text>
</svg>
